<?xml version="1.0" encoding="utf-8"?>
<!-- Generator: Adobe Illustrator 24.1.2, SVG Export Plug-In . SVG Version: 6.00 Build 0)  -->
<svg version="1.1" id="Layer_1" xmlns="http://www.w3.org/2000/svg" xmlns:xlink="http://www.w3.org/1999/xlink" x="0px" y="0px"
	 viewBox="0 0 32 32" enable-background="new 0 0 32 32" xml:space="preserve">
<path d="M18.2,12.4h6.6c0.5,0,0.8-0.4,0.8-0.8V6.3c0-0.5-0.4-0.8-0.8-0.8h-6.6c-7,0-11.9,4.3-11.9,10.6c0,6.2,4.9,10.5,11.9,10.5h1
	c0,0,0.1,0,0.1,0h5.4c0.5,0,0.8-0.4,0.8-0.8v-5.3c0-0.5-0.4-0.8-0.8-0.8c-0.5,0-0.8,0.4-0.8,0.8v4.4h-3.8v-3.6h1.9
	c0.5,0,0.8-0.4,0.8-0.8c0-0.5-0.4-0.8-0.8-0.8h-3.9c-4.1,0-4.9-1.4-4.9-3.6C13.3,13.8,14.2,12.4,18.2,12.4z M18.2,21.3h0.3v3.6h-0.3
	c-3,0-5.6-0.9-7.5-2.5C9,20.7,8,18.5,8,16c0-2.5,0.9-4.7,2.7-6.3c1.8-1.7,4.4-2.5,7.5-2.5H24v3.6h-3.7V8.4c0-0.5-0.4-0.8-0.8-0.8
	s-0.8,0.4-0.8,0.8v2.3h-0.4c-4.4,0-6.6,1.7-6.6,5.3S13.8,21.3,18.2,21.3z"/>
</svg>
